# xmcd CD database file
#
# Track frame offsets:
#	163
#	32308
#	60733
#	73858
#	94020
#	145333
#	182608
#	203908
#	223831
#
# Disc length: 3487 seconds
#
# Revision: 0
# Processed by: cddbd v1.4PL0 Copyright (c) Steve Scherf et al.
# Submitted via: NeoAudio 9.9.9
#
DISCID=840d9d09
DTITLE=Todd Wolfe Blues Project - Live From Manny's Car Wash
DYEAR=1999
DGENRE=Blues
TTITLE0=Can't Quit You
TTITLE1=Evil
TTITLE2=Stop Messin' Round
TTITLE3=On the Run
TTITLE4=Same Thing
TTITLE5=Wreck My Life
TTITLE6=4 Walls
TTITLE7=Homework
TTITLE8=Eyesight
EXTD=YEAR: 1999
EXTT0=
EXTT1=
EXTT2=
EXTT3=
EXTT4=
EXTT5=
EXTT6=
EXTT7=
EXTT8=
PLAYORDER=
